# ProBuilder 4.2.3
# https://unity3d.com/unity/features/worldbuilding/probuilder
# 16/06/2020 3:22:06 PM

mtllib ./Train_Bridge.mtl
o Train Bridge

g Train Bridge
v 0 0 0
v -11.28 0 0
v 0 1.63 0
v -11.28 1.63 0
v -11.28 0 -102.7
v -11.28 1.63 -102.7
v 0 0 -102.7
v 0 1.63 -102.7

vt 0 0
vt -11.28 0
vt 0 1.63
vt -11.28 1.63
vt -102.7 0
vt -102.7 1.63
vt 11.28 0
vt 11.28 1.63
vt 102.7 0
vt 102.7 1.63
vt 0 -102.7
vt 11.28 -102.7
vt -11.28 -102.7

vn 0 0 1
vn -1 0 0
vn 0 0 -1
vn 1 0 0
vn 0 1 0
vn 0 -1 0

usemtl ProBuilderDefault
f 3/3/1 4/4/1 2/2/1 1/1/1
f 4/3/2 6/6/2 5/5/2 2/1/2
f 6/8/3 8/3/3 7/1/3 5/7/3
f 8/10/4 3/3/4 1/1/4 7/9/4
f 8/11/5 6/12/5 4/7/5 3/1/5
f 1/1/6 2/2/6 5/13/6 7/11/6

